<?xml version="1.0" standalone="no"?>
<!DOCTYPE svg PUBLIC "-//W3C//DTD SVG 20010904//EN"
 "http://www.w3.org/TR/2001/REC-SVG-20010904/DTD/svg10.dtd">
<svg version="1.0" xmlns="http://www.w3.org/2000/svg"
 width="300.000000pt" height="144.000000pt" viewBox="0 0 300.000000 144.000000"
 preserveAspectRatio="xMidYMid meet">
<metadata>
Created by potrace 1.10, written by Peter Selinger 2001-2011
</metadata>
<g transform="translate(0.000000,144.000000) scale(0.100000,-0.100000)"
fill="#ffffff" stroke="none">
<path d="M573 1423 c-7 -2 -13 -13 -13 -23 0 -11 -9 -24 -19 -30 -11 -5 -30
-24 -42 -41 -19 -27 -20 -35 -10 -51 7 -12 8 -17 2 -13 -6 3 -11 1 -11 -5 0
-7 -6 -10 -12 -7 -7 2 -13 10 -13 18 0 8 -9 14 -20 14 -15 0 -19 -6 -18 -23 2
-12 -3 -25 -11 -28 -10 -4 -12 -16 -9 -43 4 -26 0 -41 -11 -50 -9 -7 -16 -20
-16 -27 0 -8 -9 -23 -21 -35 -11 -11 -18 -23 -15 -26 11 -11 37 7 46 33 6 15
19 38 29 53 10 14 16 32 14 39 -3 7 -2 24 1 38 6 21 11 25 31 20 29 -7 59 19
52 45 -5 18 56 99 74 99 5 0 9 -14 9 -31 0 -38 20 -119 30 -119 11 0 30 -49
30 -78 0 -16 6 -34 13 -41 8 -8 11 -39 10 -95 -2 -67 -8 -94 -28 -135 -15 -28
-30 -51 -34 -51 -11 0 -21 -38 -14 -56 3 -8 9 -14 14 -14 4 0 6 6 3 13 -3 8 9
29 26 47 17 18 29 40 28 49 -2 9 3 21 11 27 9 7 16 32 17 60 3 37 1 45 -7 34
-9 -12 -10 -12 -5 3 3 10 6 21 6 23 0 3 5 2 10 -1 6 -4 10 8 10 29 0 20 -5 36
-11 36 -6 0 -9 9 -6 19 3 12 -1 22 -9 25 -9 3 -14 21 -14 48 0 33 -6 50 -27
73 -23 25 -28 39 -30 94 -1 37 -2 72 -2 79 -1 12 -16 14 -38 5z"/>
<path d="M2649 1103 c-13 -16 -12 -17 4 -4 9 7 17 15 17 17 0 8 -8 3 -21 -13z"/>
<path d="M71 1089 c-47 -19 -61 -47 -61 -118 0 -58 5 -77 39 -143 22 -43 49
-87 60 -100 12 -12 21 -25 21 -29 0 -5 10 -18 23 -31 13 -13 56 -58 96 -100
73 -77 74 -78 57 -102 -9 -14 -16 -41 -16 -61 0 -37 17 -59 74 -98 15 -10 34
-35 44 -55 9 -20 27 -41 39 -47 13 -5 30 -28 39 -50 8 -22 22 -47 29 -55 7 -8
16 -33 19 -55 l7 -40 49 3 c50 4 58 9 41 27 -5 6 -7 24 -4 40 6 41 40 57 77
38 53 -28 83 -24 54 6 -11 10 -10 14 5 22 9 6 17 19 17 30 0 27 24 50 44 43
24 -9 31 23 11 46 -9 10 -14 24 -10 29 3 6 -1 11 -10 11 -9 0 -29 9 -43 20
-18 15 -34 19 -54 15 -17 -4 -28 -2 -28 4 0 6 -7 11 -15 11 -8 0 -15 9 -15 20
0 11 -9 25 -20 32 -22 14 -27 57 -8 76 9 9 9 15 0 24 -14 14 -16 48 -3 48 15
0 24 59 11 75 -7 9 -8 15 -1 20 7 4 5 14 -5 30 -8 13 -14 34 -12 47 2 12 -2
23 -9 23 -6 0 -34 34 -61 75 -62 95 -170 197 -247 233 -33 16 -67 32 -75 36
-23 12 -132 12 -159 0z m234 -58 c86 -41 182 -121 169 -142 -4 -7 -3 -10 4 -6
5 4 26 -15 46 -42 35 -49 100 -171 94 -175 -2 -2 -36 -1 -75 2 l-73 4 -44 63
c-53 74 -139 155 -193 181 -21 10 -57 18 -80 19 -36 0 -40 2 -29 14 17 16 70
17 110 2 42 -16 87 -51 81 -62 -4 -5 0 -6 8 -3 15 5 85 -65 142 -144 41 -58
51 -65 32 -25 -15 33 -46 71 -119 147 -32 33 -58 62 -58 65 0 14 -105 53 -145
54 -35 2 -50 -3 -67 -21 -23 -23 -23 -23 -4 -38 11 -8 36 -14 56 -14 39 0 100
-25 100 -41 0 -5 8 -9 18 -9 18 0 84 -64 140 -137 18 -23 32 -43 32 -45 0 -2
-18 -2 -40 0 -36 4 -43 9 -61 44 -18 35 -44 65 -84 95 -68 52 -194 48 -179 -5
3 -10 -8 8 -24 38 -39 73 -48 127 -28 175 11 27 20 35 31 31 9 -3 13 -2 10 3
-8 14 32 20 95 15 36 -3 82 -17 135 -43z m-76 -220 c21 -11 60 -44 86 -73 39
-43 44 -54 30 -57 -11 -2 -27 9 -41 26 -33 42 -98 85 -151 98 -26 7 -49 18
-51 25 -7 19 77 6 127 -19z m-71 -36 c1 -1 -8 -7 -21 -12 -19 -9 -26 -8 -35 8
-11 17 -9 18 21 12 17 -3 33 -7 35 -8z m39 -11 c-3 -3 -12 -4 -19 -1 -8 3 -5
6 6 6 11 1 17 -2 13 -5z m-4 -30 c45 -23 77 -54 92 -90 13 -31 52 -74 67 -74
4 0 8 23 8 50 0 28 5 50 10 50 6 0 10 -28 10 -64 0 -154 78 -379 166 -475 19
-22 30 -42 25 -45 -13 -9 -85 94 -126 179 -37 77 -75 210 -75 262 0 40 -12 43
-29 6 l-13 -28 -54 58 c-49 52 -134 168 -134 181 0 10 20 6 53 -10z m107 -44
c0 -5 -4 -10 -10 -10 -5 0 -10 5 -10 10 0 6 5 10 10 10 6 0 10 -4 10 -10z m37
-51 c2 -17 -1 -18 -13 -9 -17 15 -19 41 -1 34 7 -2 13 -14 14 -25z m103 -14
c3 -16 3 -42 -1 -57 -4 -16 -4 -28 2 -28 5 0 9 -12 9 -27 0 -16 5 -46 12 -68
6 -22 12 -42 13 -45 10 -43 45 -120 56 -120 3 0 12 -17 19 -39 7 -21 26 -54
42 -72 19 -23 27 -41 23 -54 -3 -11 -8 -31 -11 -45 -8 -41 -13 -50 -27 -50
-20 0 -17 32 4 55 18 21 18 22 -21 74 -85 113 -143 272 -155 429 -7 78 -6 83
11 80 12 -2 21 -14 24 -33z m50 10 c0 -16 -6 -25 -15 -25 -9 0 -15 9 -15 25 0
16 6 25 15 25 9 0 15 -9 15 -25z m34 -65 c3 -41 1 -69 -3 -61 -9 14 -15 148
-7 140 3 -3 8 -39 10 -79z m57 -80 c6 -30 23 -77 36 -104 27 -53 110 -140 143
-151 11 -3 20 -11 20 -16 0 -45 -141 83 -183 166 -26 51 -47 149 -46 211 l1
59 9 -55 c4 -30 13 -80 20 -110z m39 110 c0 -9 -7 -25 -15 -36 -13 -17 -14
-15 -14 36 0 51 1 53 14 36 8 -11 15 -27 15 -36z m-130 -36 c0 -13 -4 -24 -9
-24 -11 0 -22 40 -15 52 9 15 24 -2 24 -28z m13 -91 c5 -48 3 -62 -9 -50 -9 9
-22 85 -16 92 13 13 20 2 25 -42z m-134 -64 c6 -19 11 -46 11 -58 l0 -22 -30
21 c-33 24 -39 59 -18 106 13 29 12 30 37 -47z m219 -51 c6 -6 12 -17 12 -22
0 -13 107 -118 134 -133 25 -14 15 -63 -13 -63 -18 0 -101 98 -101 120 0 5 -4
10 -9 10 -5 0 -13 10 -17 23 -3 12 -19 48 -35 80 -16 33 -25 65 -22 74 5 12
11 4 22 -30 9 -25 22 -52 29 -59z m-48 -5 c24 -55 25 -56 12 -61 -5 -1 -19 20
-31 47 -24 56 -25 61 -11 61 5 0 19 -21 30 -47z m232 -69 c21 -15 35 -30 32
-35 -6 -10 -76 32 -82 49 -6 19 9 14 50 -14z m-176 -36 c9 -18 28 -45 42 -60
27 -30 24 -50 -4 -27 -25 20 -74 100 -68 110 8 14 13 11 30 -23z"/>
<path d="M535 770 c3 -5 8 -10 11 -10 2 0 4 5 4 10 0 6 -5 10 -11 10 -5 0 -7
-4 -4 -10z"/>
<path d="M561 734 c0 -11 3 -14 6 -6 3 7 2 16 -1 19 -3 4 -6 -2 -5 -13z"/>
<path d="M2270 1081 c0 -6 4 -13 10 -16 6 -3 7 1 4 9 -7 18 -14 21 -14 7z"/>
<path d="M730 797 l0 -218 128 2 c149 1 198 18 239 80 50 76 41 232 -18 297
-43 48 -70 55 -216 56 l-133 1 0 -218z m283 182 c35 -19 74 -67 81 -101 3 -17
6 -61 6 -98 0 -53 -5 -74 -23 -101 -40 -60 -88 -73 -269 -70 l-46 1 -2 103
c-1 56 -3 134 -5 172 -5 111 -11 105 121 105 67 0 124 -5 137 -11z"/>
<path d="M869 936 c-23 -11 -24 -16 -27 -133 -3 -119 -2 -123 21 -138 37 -24
96 -12 130 25 24 27 27 38 27 101 0 75 -15 115 -52 138 -28 18 -72 21 -99 7z
m96 -36 c22 -19 38 -88 30 -138 -9 -59 -34 -82 -90 -82 l-45 0 0 121 0 122 45
-5 c25 -3 52 -11 60 -18z"/>
<path d="M1200 798 l0 -218 70 0 70 0 0 90 c0 68 3 90 13 90 23 0 51 -35 87
-108 l35 -71 78 0 c43 -1 77 2 75 7 -2 4 -18 35 -36 70 -35 67 -57 94 -88 107
-17 7 -15 9 12 16 38 11 84 73 84 115 0 39 -34 92 -68 106 -15 6 -93 11 -179
12 l-153 1 0 -217z m328 172 c58 -36 53 -123 -10 -159 -40 -23 -42 -41 -9 -75
33 -35 73 -110 64 -120 -4 -3 -23 -6 -43 -6 -34 0 -39 4 -65 53 -59 110 -94
139 -134 110 -18 -12 -21 -25 -21 -89 l0 -74 -40 0 -40 0 0 189 0 189 133 0
c114 1 138 -2 165 -18z"/>
<path d="M1327 942 c-23 -25 -22 -94 1 -115 21 -19 102 -17 127 3 43 35 37 97
-12 119 -38 17 -98 14 -116 -7z m114 -22 c11 -6 19 -21 19 -35 0 -30 -26 -45
-79 -45 l-41 0 0 45 0 45 41 0 c22 0 49 -5 60 -10z"/>
<path d="M1640 963 l0 -53 71 0 70 0 -3 -165 -3 -165 68 0 67 0 0 165 0 165
70 0 70 0 0 53 0 52 -205 0 -205 0 0 -52z m380 2 c0 -23 -3 -25 -49 -25 -32 0
-55 -6 -65 -16 -18 -18 -18 -13 -21 -124 -1 -47 -3 -109 -3 -137 l-2 -53 -41
0 c-38 0 -40 2 -39 28 1 15 2 82 1 149 -1 143 -6 153 -82 153 -45 0 -49 2 -49
23 l0 23 175 2 175 3 0 -26z"/>
<path d="M2178 998 c-31 -18 -87 -73 -89 -87 0 -3 -3 -15 -6 -26 -7 -24 -8
-144 -2 -165 10 -35 61 -100 96 -121 29 -18 51 -23 107 -22 74 0 85 2 126 22
31 15 80 82 80 109 0 12 -9 22 -22 25 -13 3 -38 10 -56 15 -31 10 -33 9 -46
-23 -17 -39 -38 -52 -83 -49 -56 4 -68 26 -68 122 0 76 2 86 24 103 40 33 131
15 131 -26 0 -10 9 -11 43 -3 23 6 50 10 60 10 9 0 17 5 17 12 0 25 -58 93
-94 110 -51 24 -173 20 -218 -6z m202 -16 c33 -13 74 -58 65 -71 -10 -18 -59
-12 -77 8 -43 51 -146 29 -173 -37 -20 -45 -19 -126 1 -167 24 -51 48 -67 96
-67 36 1 48 7 76 36 35 39 49 43 77 22 18 -13 18 -14 -3 -43 -54 -76 -208 -84
-286 -15 -57 51 -73 171 -32 258 23 49 52 72 111 87 28 8 115 1 145 -11z"/>
<path d="M2751 1010 l-75 -5 -23 -60 c-13 -33 -23 -60 -22 -60 1 0 -4 -13 -61
-164 -27 -73 -50 -135 -50 -137 0 -2 31 -4 69 -4 l69 0 6 35 7 36 81 -3 82 -3
8 -32 9 -33 69 0 c39 0 70 1 70 3 0 6 -160 431 -163 431 -1 1 -36 -1 -76 -4z
m79 -70 c9 -25 21 -56 27 -70 6 -14 17 -45 26 -70 8 -25 26 -75 40 -112 14
-36 23 -69 20 -72 -4 -3 -20 -6 -38 -6 -26 0 -34 6 -48 35 l-17 36 -87 -3
c-85 -3 -87 -4 -103 -33 -13 -24 -24 -31 -53 -33 -20 -2 -37 -2 -37 0 0 4 53
148 105 288 16 41 33 78 39 83 6 4 33 6 60 5 49 -3 50 -4 66 -48z"/>
<path d="M2736 901 c-9 -10 -25 -48 -36 -85 -16 -59 -17 -68 -4 -81 24 -23 88
-23 115 1 16 14 15 20 -2 77 -20 67 -38 107 -49 107 -4 0 -14 -8 -24 -19z m64
-151 c0 -3 -20 -5 -45 -5 -25 0 -45 4 -45 8 0 5 10 41 22 80 l21 72 24 -75
c12 -41 23 -77 23 -80z"/>
<path d="M740 475 c0 -32 3 -35 29 -35 31 0 45 20 36 51 -4 13 -16 19 -36 19
-27 0 -29 -3 -29 -35z m40 1 c0 -8 -4 -18 -10 -21 -5 -3 -10 3 -10 14 0 12 5
21 10 21 6 0 10 -6 10 -14z"/>
<path d="M820 475 c0 -19 5 -35 10 -35 6 0 10 16 10 35 0 19 -4 35 -10 35 -5
0 -10 -16 -10 -35z"/>
<path d="M853 473 c3 -40 27 -59 27 -21 1 20 2 21 11 6 15 -27 24 -21 26 17 1
33 0 35 -32 35 -33 0 -34 -1 -32 -37z m42 17 c3 -5 1 -10 -4 -10 -6 0 -11 5
-11 10 0 6 2 10 4 10 3 0 8 -4 11 -10z"/>
<path d="M930 475 c0 -32 2 -35 30 -35 17 0 30 4 30 9 0 5 -9 7 -20 4 -11 -3
-20 -1 -20 5 0 6 10 13 23 15 l22 4 -22 2 c-13 0 -23 5 -23 10 0 5 10 12 23
14 16 3 13 5 -10 6 -31 1 -33 -1 -33 -34z"/>
<path d="M1010 495 c-14 -17 -7 -43 15 -51 21 -8 48 3 39 17 -4 8 -9 7 -15 -2
-6 -11 -11 -11 -20 -2 -18 18 -4 42 22 36 15 -4 20 -3 15 5 -10 17 -41 15 -56
-3z"/>
<path d="M1084 496 c-11 -29 1 -51 29 -54 20 -3 27 1 27 14 0 14 -3 15 -12 6
-19 -19 -30 -14 -26 11 2 15 9 21 22 19 11 -2 15 1 11 7 -9 16 -45 13 -51 -3z"/>
<path d="M1160 470 c0 -22 5 -40 10 -40 6 0 10 18 10 40 0 22 -4 40 -10 40 -5
0 -10 -18 -10 -40z"/>
<path d="M1207 503 c-12 -11 -8 -50 7 -62 28 -23 63 12 51 50 -6 19 -44 26
-58 12z m37 -21 c2 -4 0 -14 -5 -22 -8 -13 -10 -13 -18 0 -10 15 -6 30 9 30 5
0 11 -4 14 -8z"/>
<path d="M1280 469 c0 -24 4 -38 10 -34 6 3 10 14 10 23 1 16 2 16 14 0 19
-25 23 -23 28 17 2 19 0 35 -4 35 -4 0 -8 -10 -8 -22 l0 -22 -16 22 c-23 33
-34 27 -34 -19z"/>
<path d="M1390 471 c0 -44 16 -54 29 -19 l8 23 7 -23 c11 -34 23 -26 22 16 -2
34 -4 37 -34 40 -31 3 -32 2 -32 -37z m45 19 c3 -5 -1 -10 -10 -10 -9 0 -13 5
-10 10 3 6 8 10 10 10 2 0 7 -4 10 -10z"/>
<path d="M1470 473 c0 -35 2 -38 30 -39 18 -1 30 4 30 11 0 8 -8 11 -20 8 -11
-3 -20 0 -20 6 0 6 9 11 20 11 11 0 20 4 20 9 0 5 -9 7 -20 4 -11 -3 -20 -1
-20 5 0 6 10 13 23 15 16 3 13 5 -10 6 -32 1 -33 -1 -33 -36z"/>
<path d="M1550 495 c-20 -24 -3 -57 28 -53 29 3 45 38 18 38 -10 0 -13 -6 -9
-16 4 -12 2 -15 -8 -12 -8 3 -15 12 -17 21 -3 12 4 17 23 17 15 0 24 4 20 10
-9 15 -41 12 -55 -5z"/>
<path d="M1625 473 c3 -52 25 -55 25 -4 0 28 -4 41 -13 41 -10 0 -13 -12 -12
-37z"/>
<path d="M1667 504 c-13 -13 -7 -51 9 -65 23 -19 49 1 49 37 0 24 -5 30 -25
32 -14 2 -29 0 -33 -4z m41 -31 c-4 -22 -22 -20 -26 1 -2 10 3 16 13 16 10 0
15 -7 13 -17z"/>
<path d="M1746 473 c1 -21 7 -39 14 -41 9 -3 11 2 7 17 -6 24 8 29 17 6 10
-27 26 -15 26 20 0 19 -4 35 -10 35 -5 0 -10 -8 -10 -17 -1 -17 -1 -17 -11 0
-17 30 -34 20 -33 -20z"/>
<path d="M1834 474 c-15 -36 -11 -61 6 -34 8 12 13 13 29 3 27 -17 31 -5 15
35 -18 42 -31 41 -50 -4z m36 2 c0 -3 -4 -8 -10 -11 -5 -3 -10 -1 -10 4 0 6 5
11 10 11 6 0 10 -2 10 -4z"/>
<path d="M1910 475 c0 -31 3 -35 25 -35 14 0 25 4 25 9 0 5 -8 8 -17 7 -13 -1
-18 6 -18 27 1 15 -3 27 -7 27 -4 0 -8 -16 -8 -35z"/>
<path d="M2000 472 c0 -35 2 -38 28 -36 20 0 29 8 37 28 11 31 -3 46 -42 46
-20 0 -23 -5 -23 -38z m48 1 c-4 -22 -22 -20 -26 1 -2 10 3 16 13 16 10 0 15
-7 13 -17z"/>
<path d="M2080 473 c0 -35 2 -38 30 -39 18 -1 30 4 30 11 0 8 -8 11 -20 8 -11
-3 -20 0 -20 6 0 6 9 11 21 11 11 0 18 4 14 10 -3 5 -12 7 -20 3 -8 -3 -15 0
-15 5 0 6 10 13 23 15 16 3 13 5 -10 6 -32 1 -33 -1 -33 -36z"/>
<path d="M2180 500 c0 -5 7 -10 15 -10 11 0 14 -7 9 -25 -4 -15 -2 -25 5 -25
6 0 11 11 11 25 0 16 6 25 15 25 8 0 15 5 15 10 0 6 -16 10 -35 10 -19 0 -35
-4 -35 -10z"/>
<path d="M2260 476 c0 -35 20 -53 20 -18 1 16 1 16 14 0 19 -26 24 -22 22 15
-1 27 -6 32 -29 35 -25 3 -27 1 -27 -32z m35 14 c3 -5 1 -10 -4 -10 -6 0 -11
5 -11 10 0 6 2 10 4 10 3 0 8 -4 11 -10z"/>
<path d="M2341 479 c-14 -42 -14 -41 10 -34 13 5 25 2 30 -6 15 -25 21 -1 8
35 -16 44 -34 46 -48 5z m26 -11 c-3 -8 -6 -5 -6 6 -1 11 2 17 5 13 3 -3 4
-12 1 -19z"/>
<path d="M2410 471 c0 -44 19 -58 22 -16 0 14 1 30 2 37 1 6 -5 13 -11 16 -9
2 -13 -9 -13 -37z"/>
<path d="M2460 489 c0 -11 -4 -17 -10 -14 -13 8 -13 -1 0 -26 17 -31 30 -22
30 21 0 22 -4 40 -10 40 -5 0 -10 -9 -10 -21z"/>
<path d="M2497 503 c-12 -12 -7 -22 13 -28 11 -3 20 -11 20 -16 0 -6 -9 -7
-21 -4 -15 5 -19 4 -15 -4 9 -14 43 -14 52 0 4 7 -4 20 -17 31 l-24 19 24 -6
c16 -5 21 -4 17 4 -8 12 -39 15 -49 4z"/>
<path d="M2562 473 c3 -39 28 -60 28 -24 0 12 6 20 12 19 7 -2 14 7 16 20 3
19 -1 22 -28 22 -30 0 -31 -2 -28 -37z m38 17 c0 -5 -5 -10 -11 -10 -5 0 -7 5
-4 10 3 6 8 10 11 10 2 0 4 -4 4 -10z"/>
<path d="M2647 503 c-12 -11 -8 -50 7 -62 28 -23 63 12 51 50 -6 19 -44 26
-58 12z m37 -21 c2 -4 0 -14 -5 -22 -8 -13 -10 -13 -18 0 -10 15 -6 30 9 30 5
0 11 -4 14 -8z"/>
<path d="M2720 470 c0 -22 5 -40 10 -40 6 0 10 10 10 23 1 20 2 21 14 5 7 -10
19 -18 26 -18 9 0 10 3 2 13 -6 7 -9 23 -5 35 5 19 1 22 -26 22 -30 0 -31 -2
-31 -40z m40 20 c0 -5 -4 -10 -10 -10 -5 0 -10 5 -10 10 0 6 5 10 10 10 6 0
10 -4 10 -10z"/>
<path d="M2790 500 c0 -5 6 -10 14 -10 9 0 12 -8 8 -25 -2 -15 0 -25 7 -25 6
0 11 10 11 21 0 12 8 28 18 35 15 12 13 13 -20 14 -21 0 -38 -4 -38 -10z"/>
<path d="M2870 475 c0 -32 3 -35 28 -34 l27 0 -25 11 -25 11 25 7 25 7 -25 5
-25 5 25 11 25 11 -27 0 c-25 1 -28 -2 -28 -34z"/>
<path d="M2940 495 c0 -8 9 -19 21 -25 11 -7 18 -14 16 -17 -3 -2 -15 0 -26 7
-13 7 -21 7 -21 1 0 -6 10 -16 22 -22 18 -10 24 -8 35 7 12 16 11 21 -9 36
l-23 17 24 -6 c17 -4 22 -3 17 5 -11 17 -56 15 -56 -3z"/>
<path d="M970 391 c0 -6 5 -13 10 -16 6 -3 10 -17 10 -31 0 -13 5 -24 10 -24
6 0 10 7 10 15 0 9 7 27 16 40 9 14 12 25 6 25 -6 0 -15 -8 -21 -17 -9 -17
-10 -17 -16 0 -7 18 -25 24 -25 8z"/>
<path d="M1103 389 c-13 -5 -23 -17 -23 -27 0 -25 25 -46 45 -38 22 8 18 25
-5 19 -15 -4 -20 0 -20 17 0 17 4 20 20 15 11 -3 20 -2 20 4 0 16 -13 19 -37
10z"/>
<path d="M1164 373 c-8 -32 2 -53 25 -53 26 0 45 34 33 57 -15 26 -51 24 -58
-4z m41 -13 c0 -7 -6 -15 -12 -17 -8 -3 -13 4 -13 17 0 13 5 20 13 18 6 -3 12
-11 12 -18z"/>
<path d="M1240 360 c0 -48 15 -53 24 -9 9 45 8 49 -9 49 -11 0 -15 -11 -15
-40z"/>
<path d="M1290 379 c0 -11 4 -18 9 -15 4 3 6 -6 3 -19 -2 -15 0 -25 7 -25 6 0
11 17 11 40 0 29 -4 40 -15 40 -8 0 -15 -9 -15 -21z"/>
<path d="M1340 365 c0 -39 20 -55 45 -35 17 14 21 70 5 70 -5 0 -10 -13 -10
-30 0 -20 -5 -30 -15 -30 -11 0 -14 7 -9 24 3 13 1 27 -5 30 -7 5 -11 -6 -11
-29z"/>
<path d="M1418 360 c-3 -29 0 -40 10 -40 10 0 13 7 9 23 l-6 22 16 -22 c23
-34 33 -28 33 17 0 23 -5 40 -11 40 -6 0 -9 -9 -6 -20 3 -11 1 -20 -3 -20 -5
0 -12 9 -15 20 -10 32 -23 23 -27 -20z"/>
<path d="M1500 360 c0 -26 5 -40 13 -40 9 0 11 12 9 40 -2 22 -8 40 -13 40 -5
0 -9 -18 -9 -40z"/>
<path d="M1553 393 c-18 -6 -16 -48 2 -63 16 -13 45 -7 45 10 0 5 -10 9 -22 7
-15 -1 -23 3 -23 13 0 10 8 14 23 12 15 -1 22 3 20 10 -4 12 -26 18 -45 11z"/>
<path d="M1629 393 c-1 -16 -7 -38 -14 -55 -8 -21 -2 -22 26 -8 13 7 19 7 19
0 0 -5 6 -10 14 -10 13 0 13 4 0 28 -7 15 -14 33 -14 40 0 13 -29 17 -31 5z"/>
<path d="M1701 387 c-25 -25 2 -76 34 -63 23 8 18 28 -5 21 -16 -5 -20 -2 -20
15 0 17 4 20 20 15 11 -3 20 -2 20 3 0 15 -37 21 -49 9z"/>
<path d="M1770 360 c0 -22 5 -40 10 -40 6 0 10 18 10 40 0 22 -4 40 -10 40 -5
0 -10 -18 -10 -40z"/>
<path d="M1811 386 c-13 -18 3 -61 25 -64 29 -4 49 23 37 50 -10 23 -48 32
-62 14z m39 -26 c0 -11 -4 -20 -9 -20 -14 0 -23 18 -16 30 10 17 25 11 25 -10z"/>
<path d="M1890 362 c0 -24 5 -42 11 -42 6 0 9 6 6 14 -3 7 0 19 6 25 8 8 7 16
-6 28 -16 16 -17 15 -17 -25z"/>
<path d="M1940 381 c0 -11 -6 -21 -12 -24 -10 -3 -8 -10 5 -23 16 -18 17 -17
17 24 0 23 -2 42 -5 42 -3 0 -5 -9 -5 -19z"/>
<path d="M1970 360 c0 -38 2 -40 30 -40 17 0 30 5 30 10 0 6 -9 10 -20 10 -11
0 -20 4 -20 9 0 5 9 7 20 4 11 -3 20 -1 20 5 0 6 -10 13 -22 15 l-23 4 23 2
c33 2 27 21 -8 21 -28 0 -30 -2 -30 -40z"/>
<path d="M2043 387 c-3 -5 5 -19 18 -29 l24 -20 -23 5 c-15 4 -22 1 -19 -6 6
-18 42 -20 56 -3 10 12 7 17 -16 30 -28 15 -28 15 -4 16 13 0 21 3 17 7 -10
11 -46 11 -53 0z"/>
<path d="M2153 363 c-14 -44 -12 -48 15 -34 15 8 22 8 25 -2 2 -6 8 -9 12 -5
10 10 -14 78 -28 78 -7 0 -17 -17 -24 -37z m32 -3 c3 -5 1 -10 -4 -10 -6 0
-11 5 -11 10 0 6 2 10 4 10 3 0 8 -4 11 -10z"/>
<path d="M2220 360 c0 -45 16 -54 23 -12 l4 27 2 -27 c0 -16 5 -28 9 -28 5 0
13 12 20 28 l12 27 -5 -27 c-3 -16 -1 -28 5 -28 5 0 10 18 10 40 0 29 -4 40
-15 40 -9 0 -15 -9 -16 -22 l0 -23 -11 23 c-18 36 -38 27 -38 -18z"/>
<path d="M2325 363 c-17 -41 -13 -52 11 -32 13 11 18 11 21 2 6 -16 103 -18
103 -3 0 6 -10 10 -22 10 l-21 0 21 23 c30 32 28 37 -13 37 -24 0 -35 -5 -35
-15 0 -9 6 -12 17 -8 14 6 14 3 -3 -20 -20 -27 -22 -26 -38 26 -9 27 -24 20
-41 -20z m30 -3 c3 -5 1 -10 -4 -10 -6 0 -11 5 -11 10 0 6 2 10 4 10 3 0 8 -4
11 -10z"/>
<path d="M2467 373 c-14 -31 10 -58 42 -48 18 5 21 13 19 38 -4 40 -44 47 -61
10z m43 -13 c0 -11 -4 -20 -9 -20 -14 0 -23 18 -16 30 10 17 25 11 25 -10z"/>
<path d="M2548 360 c-2 -28 0 -40 9 -40 7 0 13 10 14 23 l0 22 11 -22 c12 -25
63 -32 71 -10 4 10 7 10 18 0 23 -22 28 -14 15 24 -17 50 -30 51 -49 6 l-15
-38 -1 38 c-1 26 -5 37 -17 37 -11 0 -14 -6 -9 -22 l6 -23 -20 23 c-10 12 -21
22 -24 22 -3 0 -7 -18 -9 -40z m122 0 c0 -5 -4 -10 -10 -10 -5 0 -10 5 -10 10
0 6 5 10 10 10 6 0 10 -4 10 -10z"/>
<path d="M2710 381 c0 -10 10 -23 23 -30 21 -11 21 -11 -5 -6 -22 4 -26 2 -22
-10 7 -19 53 -20 60 -2 3 8 1 25 -5 38 -11 30 -51 37 -51 10z"/>
<path d="M1270 340 c0 -11 5 -20 10 -20 6 0 10 9 10 20 0 11 -4 20 -10 20 -5
0 -10 -9 -10 -20z"/>
</g>
</svg>
